<?xml version="1.0" encoding="UTF-8" standalone="no"?>
<!DOCTYPE svg PUBLIC "-//W3C//DTD SVG 1.1//EN" "http://www.w3.org/Graphics/SVG/1.1/DTD/svg11.dtd">
<svg width="100%" height="100%" viewBox="0 0 24 24" version="1.1" xmlns="http://www.w3.org/2000/svg" xmlns:xlink="http://www.w3.org/1999/xlink" xml:space="preserve" xmlns:serif="http://www.serif.com/" style="fill-rule:evenodd;clip-rule:evenodd;stroke-linejoin:round;stroke-miterlimit:2;">
    <path d="M0,0L0,24L24,24L24,0L0,0ZM19.938,5.686L18.651,6.92C18.54,7.005 18.485,7.144 18.508,7.282L18.508,16.349C18.485,16.486 18.54,16.626 18.651,16.71L19.908,17.944L19.908,18.215L13.586,18.215L13.586,17.945L14.888,16.68C15.016,16.552 15.016,16.515 15.016,16.32L15.016,8.99L11.396,18.185L10.906,18.185L6.69,8.99L6.69,15.153C6.655,15.412 6.741,15.673 6.923,15.86L8.617,17.914L8.617,18.185L3.815,18.185L3.815,17.915L5.51,15.86C5.691,15.673 5.772,15.41 5.728,15.153L5.728,8.027C5.748,7.829 5.673,7.633 5.525,7.5L4.019,5.686L4.019,5.416L8.693,5.416L12.306,13.339L15.482,5.415L19.938,5.415L19.938,5.686Z" style="fill:white;fill-rule:nonzero;"/>
</svg>
